<svg width="60" height="60" viewBox="0 0 60 60" fill="none" xmlns="http://www.w3.org/2000/svg">
<path d="M5.80646 54.1935H3.87097V56.129H5.80646V54.1935Z" fill="url(#paint0_linear_60_18)"/>
<path d="M5.80646 3.87097H3.87097V5.80646H5.80646V3.87097Z" fill="url(#paint1_linear_60_18)"/>
<path d="M25.1613 3.87097H23.2258V5.80646H25.1613V3.87097Z" fill="url(#paint2_linear_60_18)"/>
<path d="M19.3548 29.0323V28.0645C19.3548 26.4194 18.0968 25.1613 16.4516 25.1613C14.8065 25.1613 13.5484 26.4194 13.5484 28.0645V31.9355C13.5484 32.5162 13.1613 32.9032 12.5807 32.9032C12 32.9032 11.6129 32.5162 11.6129 31.9355V26.1291H9.67743V29.0323H7.74194V30.9678H9.67743V31.9355C9.67743 33.5807 10.9355 34.8387 12.5807 34.8387C14.2258 34.8387 15.4839 33.5807 15.4839 31.9355V28.0645C15.4839 27.4839 15.871 27.0968 16.4516 27.0968C17.0323 27.0968 17.4194 27.4839 17.4194 28.0645V33.871H19.3548V30.9678H21.2903V29.0323H19.3548Z" fill="url(#paint3_linear_60_18)"/>
<path d="M30 45.4839H26.129C25.5484 45.4839 25.1613 45.0968 25.1613 44.5161C25.1613 43.9355 25.5484 43.5484 26.129 43.5484H31.9355V41.6129H29.0323V39.6774H27.0968V41.6129H26.129C24.4839 41.6129 23.2258 42.871 23.2258 44.5161C23.2258 46.1613 24.4839 47.4194 26.129 47.4194H30C30.5806 47.4194 30.9677 47.8065 30.9677 48.3871C30.9677 48.9678 30.5806 49.3548 30 49.3548H24.1935V51.2903H27.0968V53.2258H29.0323V51.2903H30C31.6452 51.2903 32.9032 50.0323 32.9032 48.3871C32.9032 46.7419 31.6452 45.4839 30 45.4839Z" fill="url(#paint4_linear_60_18)"/>
<path d="M14.5161 9.67743C12.3871 9.67743 10.6452 11.4194 10.6452 13.5484C10.6452 15.6774 12.3871 17.4194 14.5161 17.4194C16.6452 17.4194 18.3871 15.6774 18.3871 13.5484C18.3871 11.4194 16.6452 9.67743 14.5161 9.67743ZM14.5161 15.4839C13.4516 15.4839 12.5806 14.6129 12.5806 13.5484C12.5806 12.4839 13.4516 11.6129 14.5161 11.6129C15.5806 11.6129 16.4516 12.4839 16.4516 13.5484C16.4516 14.6129 15.5806 15.4839 14.5161 15.4839Z" fill="url(#paint5_linear_60_18)"/>
<path d="M18.3871 46.4516H20.3226C20.3226 42.1935 23.8065 38.7097 28.0645 38.7097V36.7742C22.7419 36.7742 18.3871 41.129 18.3871 46.4516Z" fill="url(#paint6_linear_60_18)"/>
<path d="M35.8065 46.4516C35.8065 50.7097 32.3226 54.1935 28.0645 54.1935V56.129C33.3871 56.129 37.7419 51.7742 37.7419 46.4516H35.8065Z" fill="url(#paint7_linear_60_18)"/>
<path d="M59.7097 23.5161L53.9032 17.7097C53.7097 17.5161 53.5161 17.4194 53.2258 17.4194H31.9355C31.3548 17.4194 30.9677 17.8065 30.9677 18.3871V33.1935C30.2903 33.0968 29.7097 33 29.0323 32.9032V0.967742C29.0323 0.387097 28.6452 0 28.0645 0H0.967742C0.387097 0 0 0.387097 0 0.967742V59.0323C0 59.6129 0.387097 60 0.967742 60H28.0645C29.129 60 30.1935 59.9032 31.1613 59.6129C31.3548 59.8064 31.6452 60 31.9355 60H59.0323C59.6129 60 60 59.6129 60 59.0323V24.1935C60 23.9032 59.9032 23.7097 59.7097 23.5161ZM54.1935 20.7097L56.7097 23.2258H54.1935V20.7097ZM32.9032 19.3548H52.2581V21.2903H32.9032V19.3548ZM1.93548 58.0645V1.93548H27.0968V33C26.4194 33 25.8387 33.0968 25.1613 33.2903V8.70968C25.1613 8.12903 24.7742 7.74194 24.1935 7.74194C22.5484 7.74194 21.2903 6.48387 21.2903 4.83871C21.2903 4.25806 20.9032 3.87097 20.3226 3.87097H8.70968C8.12903 3.87097 7.74194 4.25806 7.74194 4.83871C7.74194 6.48387 6.48387 7.74194 4.83871 7.74194C4.25806 7.74194 3.87097 8.12903 3.87097 8.70968V51.2903C3.87097 51.871 4.25806 52.2581 4.83871 52.2581C6.48387 52.2581 7.74194 53.5161 7.74194 55.1613C7.74194 55.7419 8.12903 56.129 8.70968 56.129H18.5806C19.3548 56.9032 20.2258 57.4839 21.0968 58.0645H1.93548ZM14.7097 48.3871C14.6129 48.3871 14.6129 48.3871 14.5161 48.3871C13.4516 48.3871 12.5806 47.5161 12.5806 46.4516C12.5806 45.3871 13.4516 44.5161 14.5161 44.5161C14.6129 44.5161 14.6129 44.5161 14.7097 44.5161C14.4194 45.7742 14.4194 47.129 14.7097 48.3871ZM10.6452 45.7742C10.3548 47.9032 11.7097 49.8387 13.8387 50.2258C14.2258 50.3226 14.6129 50.3226 15.0968 50.2258C15.4839 51.5806 16.1613 52.9355 16.9355 54.1935H9.58064C9.19355 52.2581 7.74194 50.8064 5.80645 50.4194V9.58064C7.74194 9.19355 9.19355 7.74194 9.58064 5.80645H19.4516C19.8387 7.74194 21.2903 9.19355 23.2258 9.58064V33.7742C19.2581 35.3226 16.2581 38.6129 15.0968 42.5806C12.9677 42.2903 11.0323 43.6452 10.6452 45.7742ZM28.0645 58.0645C21.6774 58.0645 16.4516 52.8387 16.4516 46.4516C16.4516 40.0645 21.6774 34.8387 28.0645 34.8387C34.4516 34.8387 39.6774 40.0645 39.6774 46.4516C39.6774 52.8387 34.4516 58.0645 28.0645 58.0645ZM36.7742 36.0968V34.8387H38.7097V36.7742H37.5484C37.2581 36.5806 37.0645 36.2903 36.7742 36.0968ZM58.0645 58.0645H35.0323C35.9032 57.4839 36.7742 56.9032 37.5484 56.129H58.0645V58.0645ZM58.0645 54.1935H39.1935C42.4839 49.5484 42.4839 43.3548 39.1935 38.7097H39.6774C40.2581 38.7097 40.6452 38.3226 40.6452 37.7419V33.871C40.6452 33.2903 40.2581 32.9032 39.6774 32.9032H35.8064C35.2258 32.9032 34.8387 33.2903 34.8387 33.871V34.7419C34.2581 34.3548 33.5806 34.0645 32.9032 33.7742V23.2258H52.2581V24.1935C52.2581 24.7742 52.6452 25.1613 53.2258 25.1613H58.0645V54.1935Z" fill="url(#paint8_linear_60_18)"/>
<path d="M39.6774 25.1613H35.8065C35.2258 25.1613 34.8387 25.5484 34.8387 26.1291V30C34.8387 30.5807 35.2258 30.9678 35.8065 30.9678H39.6774C40.2581 30.9678 40.6452 30.5807 40.6452 30V26.1291C40.6452 25.5484 40.2581 25.1613 39.6774 25.1613ZM38.7097 29.0323H36.7742V27.0968H38.7097V29.0323Z" fill="url(#paint9_linear_60_18)"/>
<path d="M56.129 29.0322H42.5806V30.9677H56.129V29.0322Z" fill="url(#paint10_linear_60_18)"/>
<path d="M56.129 36.7742H42.5806V38.7097H56.129V36.7742Z" fill="url(#paint11_linear_60_18)"/>
<path d="M56.129 44.5161H42.5806V46.4516H56.129V44.5161Z" fill="url(#paint12_linear_60_18)"/>
<defs>
<linearGradient id="paint0_linear_60_18" x1="4.83871" y1="54.1935" x2="4.83871" y2="56.129" gradientUnits="userSpaceOnUse">
<stop stop-color="#990A92"/>
<stop offset="1" stop-color="#1E1A43"/>
</linearGradient>
<linearGradient id="paint1_linear_60_18" x1="4.83871" y1="3.87097" x2="4.83871" y2="5.80646" gradientUnits="userSpaceOnUse">
<stop stop-color="#990A92"/>
<stop offset="1" stop-color="#1E1A43"/>
</linearGradient>
<linearGradient id="paint2_linear_60_18" x1="24.1935" y1="3.87097" x2="24.1935" y2="5.80646" gradientUnits="userSpaceOnUse">
<stop stop-color="#990A92"/>
<stop offset="1" stop-color="#1E1A43"/>
</linearGradient>
<linearGradient id="paint3_linear_60_18" x1="14.5161" y1="25.1613" x2="14.5161" y2="34.8387" gradientUnits="userSpaceOnUse">
<stop stop-color="#990A92"/>
<stop offset="1" stop-color="#1E1A43"/>
</linearGradient>
<linearGradient id="paint4_linear_60_18" x1="28.0645" y1="39.6774" x2="28.0645" y2="53.2258" gradientUnits="userSpaceOnUse">
<stop stop-color="#990A92"/>
<stop offset="1" stop-color="#1E1A43"/>
</linearGradient>
<linearGradient id="paint5_linear_60_18" x1="14.5161" y1="9.67743" x2="14.5161" y2="17.4194" gradientUnits="userSpaceOnUse">
<stop stop-color="#990A92"/>
<stop offset="1" stop-color="#1E1A43"/>
</linearGradient>
<linearGradient id="paint6_linear_60_18" x1="23.2258" y1="36.7742" x2="23.2258" y2="46.4516" gradientUnits="userSpaceOnUse">
<stop stop-color="#990A92"/>
<stop offset="1" stop-color="#1E1A43"/>
</linearGradient>
<linearGradient id="paint7_linear_60_18" x1="32.9032" y1="46.4516" x2="32.9032" y2="56.129" gradientUnits="userSpaceOnUse">
<stop stop-color="#990A92"/>
<stop offset="1" stop-color="#1E1A43"/>
</linearGradient>
<linearGradient id="paint8_linear_60_18" x1="30" y1="0" x2="30" y2="60" gradientUnits="userSpaceOnUse">
<stop stop-color="#990A92"/>
<stop offset="1" stop-color="#1E1A43"/>
</linearGradient>
<linearGradient id="paint9_linear_60_18" x1="37.7419" y1="25.1613" x2="37.7419" y2="30.9678" gradientUnits="userSpaceOnUse">
<stop stop-color="#990A92"/>
<stop offset="1" stop-color="#1E1A43"/>
</linearGradient>
<linearGradient id="paint10_linear_60_18" x1="49.3548" y1="29.0322" x2="49.3548" y2="30.9677" gradientUnits="userSpaceOnUse">
<stop stop-color="#990A92"/>
<stop offset="1" stop-color="#1E1A43"/>
</linearGradient>
<linearGradient id="paint11_linear_60_18" x1="49.3548" y1="36.7742" x2="49.3548" y2="38.7097" gradientUnits="userSpaceOnUse">
<stop stop-color="#990A92"/>
<stop offset="1" stop-color="#1E1A43"/>
</linearGradient>
<linearGradient id="paint12_linear_60_18" x1="49.3548" y1="44.5161" x2="49.3548" y2="46.4516" gradientUnits="userSpaceOnUse">
<stop stop-color="#990A92"/>
<stop offset="1" stop-color="#1E1A43"/>
</linearGradient>
</defs>
</svg>
