<svg width="61" height="60" viewBox="0 0 61 60" fill="none" xmlns="http://www.w3.org/2000/svg">
<path d="M24.6362 18.7876C24.1508 18.7876 23.7573 19.181 23.7573 19.6665V20.606C23.7573 21.0915 24.1508 21.4849 24.6362 21.4849C25.1216 21.4849 25.5151 21.0915 25.5151 20.606V19.6665C25.5151 19.1811 25.1215 18.7876 24.6362 18.7876Z" fill="url(#paint0_linear_60_86)"/>
<path d="M35.9086 18.7876C35.4231 18.7876 35.0297 19.181 35.0297 19.6665V20.606C35.0297 21.0915 35.4231 21.4849 35.9086 21.4849C36.3941 21.4849 36.7875 21.0915 36.7875 20.606V19.6665C36.7875 19.1811 36.394 18.7876 35.9086 18.7876Z" fill="url(#paint1_linear_60_86)"/>
<path d="M33.7162 25.6252C33.3754 25.2793 32.8189 25.2758 32.4734 25.6167C32.1525 25.9331 31.3836 26.3027 30.2724 26.3027C29.1612 26.3027 28.3924 25.9331 28.0715 25.6167C27.7258 25.2756 27.1693 25.2795 26.8286 25.625C26.4877 25.9706 26.4915 26.527 26.8369 26.8679C27.5939 27.6146 28.8781 28.0605 30.2724 28.0605C31.6666 28.0605 32.9508 27.6146 33.7077 26.8679C34.0533 26.5271 34.0571 25.9706 33.7162 25.6252Z" fill="url(#paint2_linear_60_86)"/>
<path d="M25.5754 15.9695H23.6968C23.2114 15.9695 22.8179 16.3629 22.8179 16.8484C22.8179 17.334 23.2114 17.7273 23.6968 17.7273H25.5755C26.0609 17.7273 26.4544 17.334 26.4544 16.8484C26.4544 16.3629 26.0608 15.9695 25.5754 15.9695Z" fill="url(#paint3_linear_60_86)"/>
<path d="M36.848 15.9695H34.9692C34.4837 15.9695 34.0903 16.3629 34.0903 16.8484C34.0903 17.334 34.4838 17.7273 34.9692 17.7273H36.848C37.3335 17.7273 37.7269 17.334 37.7269 16.8484C37.7269 16.3629 37.3335 15.9695 36.848 15.9695Z" fill="url(#paint4_linear_60_86)"/>
<path d="M49.0959 41.8637L42.7609 39.9161C42.7712 39.7247 42.7571 39.5311 42.712 39.3398C42.5732 38.7526 42.1843 38.261 41.6447 37.9911L37.7269 36.0324V33.2389C40.6581 31.2003 42.721 27.9958 43.2369 24.303H43.7593C45.4722 24.303 46.9415 23.0303 47.1042 21.4052C47.1953 20.4946 46.8974 19.5854 46.2869 18.9108C45.9915 18.5842 45.6344 18.3258 45.242 18.1452V8.39397C45.242 4.8015 42.3193 1.87874 38.7267 1.87874C38.7221 1.87874 38.661 1.87874 38.5781 1.87886C36.9957 0.711676 34.6711 0 32.0924 0C26.6023 0 24.0801 1.14374 21.1598 2.46807C19.5997 3.17553 17.9866 3.90701 15.7001 4.57568C15.4601 4.64587 15.2612 4.81497 15.1535 5.04079C15.0458 5.26649 15.0394 5.52747 15.1358 5.75821C15.1625 5.82219 15.5552 6.73379 16.5683 7.8412C16.1309 8.37968 15.3028 9.75674 15.3028 12.4646V18.1843C14.2915 18.6666 13.5533 19.6218 13.4407 20.7457C13.3494 21.6564 13.6472 22.5656 14.2578 23.2405C14.8686 23.9157 15.7411 24.3029 16.6514 24.3029H17.3074C17.8228 27.9969 19.8859 31.2017 22.8178 33.24V36.0323L18.8999 37.991C18.3602 38.261 17.9712 38.7526 17.8325 39.3398C17.7874 39.531 17.7735 39.7246 17.7837 39.9159L11.4487 41.8636C8.697 42.7097 6.84814 45.2122 6.84814 48.0911V59.1208C6.84814 59.6063 7.24166 59.9997 7.72705 59.9997C8.21243 59.9997 8.60595 59.6063 8.60595 59.1208V48.0912C8.60595 45.9892 9.95594 44.1617 11.9653 43.5439L18.5549 41.518L19.718 43.0689L18.3966 44.3904C17.5559 45.2309 17.3482 46.5102 17.8799 47.5736L20.3959 52.6055H18V51.6057C18 51.1202 17.6065 50.7268 17.1211 50.7268C16.6357 50.7268 16.2422 51.1202 16.2422 51.6057V52.6055H12.4241C11.9387 52.6055 11.5452 52.9989 11.5452 53.4844V59.1208C11.5452 59.6063 11.9387 59.9997 12.4241 59.9997H21.8181C22.3034 59.9997 22.697 59.6063 22.697 59.1208V57.2076L23.8501 59.5139C24.0041 59.8219 24.3144 59.9999 24.6369 59.9999C24.7689 59.9999 24.903 59.9699 25.0292 59.9068C25.4634 59.6897 25.6394 59.1619 25.4223 58.7276L19.4522 46.7873C19.2594 46.4018 19.3348 45.9381 19.6396 45.6331L21.5001 43.7724C21.8094 43.4632 21.8442 42.9736 21.5818 42.6237L19.5906 39.9688C19.5244 39.8804 19.5327 39.7898 19.5436 39.7437C19.5545 39.6974 19.5875 39.6127 19.6863 39.5632L23.148 37.8324L25.5918 46.2111C25.7278 46.6773 26.2155 46.9445 26.6817 46.8089C27.1477 46.6729 27.4153 46.1851 27.2793 45.719L26.8941 44.3983C27.9748 44.7739 29.1175 44.9694 30.2726 44.9694C31.4282 44.9694 32.5704 44.7745 33.6509 44.3989L30.2725 55.9817L28.3757 49.4785C28.2398 49.0123 27.7519 48.7448 27.2859 48.8807C26.8198 49.0167 26.5523 49.5046 26.6882 49.9706L29.4288 59.3666C29.5382 59.7416 29.8819 59.9994 30.2725 59.9994C30.6631 59.9994 31.0069 59.7416 31.1162 59.3666L37.3971 37.8324L40.8587 39.5632C40.9576 39.6127 40.9905 39.6975 41.0015 39.7436C41.0124 39.7898 41.0208 39.8804 40.9546 39.9688L38.9633 42.6237C38.7009 42.9735 38.7357 43.4632 39.0449 43.7726L40.9056 45.6333C41.2105 45.9381 41.2856 46.4019 41.0929 46.7873L35.1225 58.7277C34.9054 59.1619 35.0814 59.6898 35.5156 59.907C35.6418 59.9701 35.7759 60 35.908 60C36.2304 60 36.5408 59.8219 36.6948 59.514L42.6649 47.5737C43.1966 46.5104 42.989 45.2312 42.1484 44.3905L40.8268 43.0689L41.9898 41.5181L48.5794 43.5442C50.5887 44.1619 51.9387 45.9893 51.9387 48.0915V59.1208C51.9387 59.6063 52.3321 59.9997 52.8176 59.9997C53.3031 59.9997 53.6965 59.6063 53.6965 59.1208V48.0912C53.6964 45.2123 51.8477 42.7097 49.0959 41.8637ZM20.9389 58.2419H13.3028V54.3633H16.242V54.4238C16.242 54.9093 16.6355 55.3027 17.1209 55.3027C17.6062 55.3027 17.9998 54.9093 17.9998 54.4238V54.3633H20.9389V58.2419ZM21.8857 4.06896C24.7332 2.77768 26.9822 1.7578 32.0924 1.7578C35.335 1.7578 38.2325 3.11483 38.8324 4.91446C38.986 5.37501 39.4834 5.62356 39.9442 5.47028C40.4046 5.31677 40.6535 4.81896 40.5 4.35853C40.4495 4.20689 40.3891 4.05818 40.3208 3.91216C42.1623 4.56911 43.4843 6.32973 43.4843 8.39397V17.8484H42.4844C41.9331 17.8484 41.4846 17.3999 41.4846 16.8485V15.909C41.4846 11.8343 38.5345 8.83753 38.4089 8.7119C38.1772 8.48011 37.8356 8.39702 37.5227 8.49522C32.6438 10.036 25.7646 11.3345 20.7 8.77202C18.8978 7.86007 17.8336 6.70121 17.2739 5.92743C19.1396 5.31431 20.5858 4.65841 21.8857 4.06896ZM35.9692 36.45L34.2906 42.2053C33.0606 42.8644 31.6787 43.2118 30.2725 43.2118C28.8671 43.2118 27.4839 42.8648 26.2545 42.2062L24.5756 36.45V34.2695C26.2988 35.1059 28.2317 35.5758 30.2724 35.5758C32.3128 35.5758 34.2457 35.1057 35.9692 34.2687V36.45ZM30.2724 33.8179C24.0233 33.8179 18.9394 28.7339 18.9394 22.4848C18.9394 21.9992 18.5459 21.6059 18.0605 21.6059C17.5751 21.6059 17.1816 21.9992 17.1816 22.4848V22.5452H16.6514C16.2369 22.5452 15.8395 22.3687 15.5612 22.0611C15.2793 21.7495 15.1473 21.3446 15.1897 20.921C15.2637 20.1837 15.9647 19.6061 16.7857 19.6061H18.0605C19.5811 19.6061 20.8181 18.3689 20.8181 16.8484V13.5311C20.8181 13.0456 20.4246 12.6522 19.9392 12.6522C19.4538 12.6522 19.0603 13.0456 19.0603 13.5311V16.8484C19.0603 17.3998 18.6117 17.8483 18.0605 17.8483H17.0606V12.4646C17.0606 10.4195 17.6102 9.4026 17.8641 9.04202C18.401 9.46553 19.0308 9.88506 19.7679 10.2692C21.7597 11.3074 24.1304 11.8823 26.814 11.9779C29.9594 12.091 33.5544 11.5393 37.5061 10.3404C38.2036 11.1851 39.7269 13.3258 39.7269 15.9089V16.8484C39.7269 18.369 40.964 19.6061 42.4845 19.6061H43.8936C44.3081 19.6061 44.7055 19.7825 44.9838 20.0902C45.2657 20.4018 45.3977 20.8065 45.3553 21.2301C45.2814 21.9676 44.5805 22.5452 43.7595 22.5452H43.363V22.4939C43.363 22.0086 42.9697 21.6152 42.4844 21.615C41.9993 21.615 41.6055 22.008 41.6052 22.4932C41.6004 28.7376 36.5166 33.8179 30.2724 33.8179Z" fill="url(#paint5_linear_60_86)"/>
<path d="M48.1208 53.0752H46.6513V51.6057C46.6513 51.1202 46.2579 50.7268 45.7724 50.7268C45.2869 50.7268 44.8935 51.1202 44.8935 51.6057V53.0752H43.4238C42.9383 53.0752 42.5449 53.4686 42.5449 53.9541C42.5449 54.4396 42.9383 54.833 43.4238 54.833H44.8935V56.3026C44.8935 56.7881 45.2869 57.1815 45.7724 57.1815C46.2579 57.1815 46.6513 56.7881 46.6513 56.3026V54.833H48.1208C48.6063 54.833 48.9997 54.4396 48.9997 53.9541C48.9997 53.4686 48.6061 53.0752 48.1208 53.0752Z" fill="url(#paint6_linear_60_86)"/>
<defs>
<linearGradient id="paint0_linear_60_86" x1="24.6362" y1="18.7876" x2="24.6362" y2="21.4849" gradientUnits="userSpaceOnUse">
<stop stop-color="#990A92"/>
<stop offset="1" stop-color="#1E1A43"/>
</linearGradient>
<linearGradient id="paint1_linear_60_86" x1="35.9086" y1="18.7876" x2="35.9086" y2="21.4849" gradientUnits="userSpaceOnUse">
<stop stop-color="#990A92"/>
<stop offset="1" stop-color="#1E1A43"/>
</linearGradient>
<linearGradient id="paint2_linear_60_86" x1="30.2724" y1="25.3633" x2="30.2724" y2="28.0605" gradientUnits="userSpaceOnUse">
<stop stop-color="#990A92"/>
<stop offset="1" stop-color="#1E1A43"/>
</linearGradient>
<linearGradient id="paint3_linear_60_86" x1="24.6362" y1="15.9695" x2="24.6362" y2="17.7273" gradientUnits="userSpaceOnUse">
<stop stop-color="#990A92"/>
<stop offset="1" stop-color="#1E1A43"/>
</linearGradient>
<linearGradient id="paint4_linear_60_86" x1="35.9086" y1="15.9695" x2="35.9086" y2="17.7273" gradientUnits="userSpaceOnUse">
<stop stop-color="#990A92"/>
<stop offset="1" stop-color="#1E1A43"/>
</linearGradient>
<linearGradient id="paint5_linear_60_86" x1="30.2723" y1="0" x2="30.2723" y2="60" gradientUnits="userSpaceOnUse">
<stop stop-color="#990A92"/>
<stop offset="1" stop-color="#1E1A43"/>
</linearGradient>
<linearGradient id="paint6_linear_60_86" x1="45.7723" y1="50.7268" x2="45.7723" y2="57.1815" gradientUnits="userSpaceOnUse">
<stop stop-color="#990A92"/>
<stop offset="1" stop-color="#1E1A43"/>
</linearGradient>
</defs>
</svg>
