<svg width="61" height="60" viewBox="0 0 61 60" fill="none" xmlns="http://www.w3.org/2000/svg">
<g clip-path="url(#clip0_60_108)">
<path d="M54.8286 0H6.66832C3.40418 0 0.748474 2.6557 0.748474 5.91984V54.1406C0.748474 54.7879 1.27312 55.3125 1.92035 55.3125H5.43597V58.8281C5.43597 59.4754 5.96062 60 6.60785 60H20.6703C21.3176 60 21.8422 59.4754 21.8422 58.8281V55.3125H39.6547V58.8281C39.6547 59.4754 40.1794 60 40.8266 60H54.8891C55.5363 60 56.061 59.4754 56.061 58.8281V55.3125H59.5766C60.2238 55.3125 60.7485 54.7879 60.7485 54.1406V5.91984C60.7485 2.6557 58.0928 0 54.8286 0ZM19.4985 57.6562H7.77972V55.3125H19.4985V57.6562ZM53.7172 57.6562H41.9985V55.3125H53.7172V57.6562ZM58.4047 52.9688H3.09222V5.91984C3.09222 3.94793 4.6964 2.34375 6.66832 2.34375H54.8286C56.8005 2.34375 58.4047 3.94793 58.4047 5.91984V52.9688Z" fill="url(#paint0_linear_60_108)"/>
<path d="M15.9828 48.2812H11.2953C10.6496 48.2812 10.1235 48.8074 10.1235 49.4531C10.1235 50.0988 10.6496 50.625 11.2953 50.625H15.9828C16.6286 50.625 17.1547 50.0988 17.1547 49.4531C17.1547 48.8074 16.6286 48.2812 15.9828 48.2812Z" fill="url(#paint1_linear_60_108)"/>
<path d="M6.60785 48.2812C5.96215 48.2812 5.43597 48.8074 5.43597 49.4531C5.43597 50.0988 5.96215 50.625 6.60785 50.625C7.25355 50.625 7.77972 50.0988 7.77972 49.4531C7.77972 48.8074 7.25355 48.2812 6.60785 48.2812Z" fill="url(#paint2_linear_60_108)"/>
<path d="M6.60785 43.5938C5.96215 43.5938 5.43597 44.1199 5.43597 44.7656C5.43597 45.4113 5.96215 45.9375 6.60785 45.9375C7.25355 45.9375 7.77972 45.4113 7.77972 44.7656C7.77972 44.1199 7.25355 43.5938 6.60785 43.5938Z" fill="url(#paint3_linear_60_108)"/>
<path d="M15.9828 43.5938H11.2953C10.6496 43.5938 10.1235 44.1199 10.1235 44.7656C10.1235 45.4113 10.6496 45.9375 11.2953 45.9375H15.9828C16.6286 45.9375 17.1547 45.4113 17.1547 44.7656C17.1547 44.1199 16.6286 43.5938 15.9828 43.5938Z" fill="url(#paint4_linear_60_108)"/>
<path d="M15.9828 38.9062H11.2953C10.6496 38.9062 10.1235 39.4324 10.1235 40.0781C10.1235 40.7238 10.6496 41.25 11.2953 41.25H15.9828C16.6286 41.25 17.1547 40.7238 17.1547 40.0781C17.1547 39.4324 16.6286 38.9062 15.9828 38.9062Z" fill="url(#paint5_linear_60_108)"/>
<path d="M6.60785 38.9062C5.96215 38.9062 5.43597 39.4324 5.43597 40.0781C5.43597 40.7238 5.96215 41.25 6.60785 41.25C7.25355 41.25 7.77972 40.7238 7.77972 40.0781C7.77972 39.4324 7.25355 38.9062 6.60785 38.9062Z" fill="url(#paint6_linear_60_108)"/>
<path d="M45.5141 38.9062C44.8672 38.9062 44.3422 39.4312 44.3422 40.0781C44.3422 40.725 44.8672 41.25 45.5141 41.25C46.161 41.25 46.686 40.725 46.686 40.0781C46.686 39.4312 46.161 38.9062 45.5141 38.9062Z" fill="url(#paint7_linear_60_108)"/>
<path d="M50.2016 38.9062C49.5547 38.9062 49.0297 39.4312 49.0297 40.0781C49.0297 40.725 49.5547 41.25 50.2016 41.25C50.8485 41.25 51.3735 40.725 51.3735 40.0781C51.3735 39.4312 50.8485 38.9062 50.2016 38.9062Z" fill="url(#paint8_linear_60_108)"/>
<path d="M54.8891 38.9062C54.2422 38.9062 53.7172 39.4312 53.7172 40.0781C53.7172 40.725 54.2422 41.25 54.8891 41.25C55.536 41.25 56.061 40.725 56.061 40.0781C56.061 39.4312 55.536 38.9062 54.8891 38.9062Z" fill="url(#paint9_linear_60_108)"/>
<path d="M50.2016 43.5938C49.5547 43.5938 49.0297 44.1187 49.0297 44.7656C49.0297 45.4125 49.5547 45.9375 50.2016 45.9375C50.8485 45.9375 51.3735 45.4125 51.3735 44.7656C51.3735 44.1187 50.8485 43.5938 50.2016 43.5938Z" fill="url(#paint10_linear_60_108)"/>
<path d="M54.8891 43.5938C54.2422 43.5938 53.7172 44.1187 53.7172 44.7656C53.7172 45.4125 54.2422 45.9375 54.8891 45.9375C55.536 45.9375 56.061 45.4125 56.061 44.7656C56.061 44.1187 55.536 43.5938 54.8891 43.5938Z" fill="url(#paint11_linear_60_108)"/>
<path d="M45.5141 43.5938C44.8672 43.5938 44.3422 44.1187 44.3422 44.7656C44.3422 45.4125 44.8672 45.9375 45.5141 45.9375C46.161 45.9375 46.686 45.4125 46.686 44.7656C46.686 44.1187 46.161 43.5938 45.5141 43.5938Z" fill="url(#paint12_linear_60_108)"/>
<path d="M54.8891 48.2812C54.2422 48.2812 53.7172 48.8062 53.7172 49.4531C53.7172 50.1 54.2422 50.625 54.8891 50.625C55.536 50.625 56.061 50.1 56.061 49.4531C56.061 48.8062 55.536 48.2812 54.8891 48.2812Z" fill="url(#paint13_linear_60_108)"/>
<path d="M45.5141 48.2812C44.8672 48.2812 44.3422 48.8062 44.3422 49.4531C44.3422 50.1 44.8672 50.625 45.5141 50.625C46.161 50.625 46.686 50.1 46.686 49.4531C46.686 48.8062 46.161 48.2812 45.5141 48.2812Z" fill="url(#paint14_linear_60_108)"/>
<path d="M50.2016 48.2812C49.5547 48.2812 49.0297 48.8062 49.0297 49.4531C49.0297 50.1 49.5547 50.625 50.2016 50.625C50.8485 50.625 51.3735 50.1 51.3735 49.4531C51.3735 48.8062 50.8485 48.2812 50.2016 48.2812Z" fill="url(#paint15_linear_60_108)"/>
<path d="M28.4047 38.9062H22.5453C21.8981 38.9062 21.3735 39.4309 21.3735 40.0781V49.4531C21.3735 50.1004 21.8981 50.625 22.5453 50.625H28.4047C29.052 50.625 29.5766 50.1004 29.5766 49.4531V40.0781C29.5766 39.4309 29.052 38.9062 28.4047 38.9062ZM27.2328 48.2812H23.7172V45.9375H27.2328V48.2812ZM27.2328 43.5938H23.7172V41.25H27.2328V43.5938Z" fill="url(#paint16_linear_60_108)"/>
<path d="M38.9516 38.9062H33.0922C32.445 38.9062 31.9203 39.4309 31.9203 40.0781V49.4531C31.9203 50.1004 32.445 50.625 33.0922 50.625H38.9516C39.5988 50.625 40.1235 50.1004 40.1235 49.4531V40.0781C40.1235 39.4309 39.5988 38.9062 38.9516 38.9062ZM37.7797 48.2812H34.2641V45.9375H37.7797V48.2812ZM37.7797 43.5938H34.2641V41.25H37.7797V43.5938Z" fill="url(#paint17_linear_60_108)"/>
<path d="M54.8891 4.6875H6.60785C5.96062 4.6875 5.43597 5.21215 5.43597 5.85938V31.6406C5.43597 32.2879 5.96062 32.8125 6.60785 32.8125H54.8891C55.5363 32.8125 56.061 32.2879 56.061 31.6406V5.85938C56.061 5.21215 55.5363 4.6875 54.8891 4.6875ZM53.7172 30.4688L7.74847 30.5L7.77972 7.03125H53.7172V30.4688Z" fill="url(#paint18_linear_60_108)"/>
<path d="M50.2016 17.5781H49.4985C49.078 17.5781 48.6896 17.8035 48.4809 18.1686L45.9828 22.5403V10.5469C45.9828 10.0156 45.6253 9.55067 45.1118 9.41426C44.5983 9.27798 44.0571 9.50415 43.7934 9.96551L39.4434 17.5781H35.436C35.1252 17.5781 34.8271 17.7016 34.6073 17.9214L31.9203 20.6084V14.0625C31.9203 13.5886 31.6348 13.1612 31.197 12.9798C30.759 12.7984 30.255 12.8988 29.92 13.2338L25.5755 17.5781H21.3735C20.953 17.5781 20.5646 17.8035 20.3559 18.1686L17.8578 22.5403V10.5469C17.8578 10.0156 17.5003 9.55067 16.9868 9.41426C16.4732 9.27798 15.9321 9.50415 15.6684 9.96551L11.3184 17.5781H11.2953C10.6481 17.5781 10.1235 18.1028 10.1235 18.75C10.1235 19.3972 10.6481 19.9219 11.2953 19.9219H11.9985C12.4189 19.9219 12.8073 19.6965 13.016 19.3314L15.5141 14.9597V26.9531C15.5141 27.4844 15.8716 27.9493 16.3852 28.0857C16.8986 28.2221 17.4398 27.9958 17.7035 27.5345L22.0535 19.9219H26.061C26.3718 19.9219 26.6699 19.7984 26.8896 19.5786L29.5766 16.8916V23.4375C29.5766 23.9114 29.8622 24.3388 30.3 24.5202C30.7378 24.7016 31.242 24.6013 31.5771 24.2662L35.9214 19.9219H40.1235C40.5439 19.9219 40.9323 19.6965 41.141 19.3314L43.6391 14.9597V26.9531C43.6391 27.4844 43.9966 27.9493 44.5102 28.0857C44.6102 28.1123 44.7113 28.1251 44.8111 28.1251C45.2239 28.1251 45.6162 27.906 45.8285 27.5345L50.1785 19.9219H50.2016C50.8488 19.9219 51.3735 19.3972 51.3735 18.75C51.3735 18.1028 50.8488 17.5781 50.2016 17.5781Z" fill="url(#paint19_linear_60_108)"/>
</g>
<defs>
<linearGradient id="paint0_linear_60_108" x1="30.7485" y1="0" x2="30.7485" y2="60" gradientUnits="userSpaceOnUse">
<stop stop-color="#990A92"/>
<stop offset="1" stop-color="#1E1A43"/>
</linearGradient>
<linearGradient id="paint1_linear_60_108" x1="13.6391" y1="48.2812" x2="13.6391" y2="50.625" gradientUnits="userSpaceOnUse">
<stop stop-color="#990A92"/>
<stop offset="1" stop-color="#1E1A43"/>
</linearGradient>
<linearGradient id="paint2_linear_60_108" x1="6.60785" y1="48.2812" x2="6.60785" y2="50.625" gradientUnits="userSpaceOnUse">
<stop stop-color="#990A92"/>
<stop offset="1" stop-color="#1E1A43"/>
</linearGradient>
<linearGradient id="paint3_linear_60_108" x1="6.60785" y1="43.5938" x2="6.60785" y2="45.9375" gradientUnits="userSpaceOnUse">
<stop stop-color="#990A92"/>
<stop offset="1" stop-color="#1E1A43"/>
</linearGradient>
<linearGradient id="paint4_linear_60_108" x1="13.6391" y1="43.5938" x2="13.6391" y2="45.9375" gradientUnits="userSpaceOnUse">
<stop stop-color="#990A92"/>
<stop offset="1" stop-color="#1E1A43"/>
</linearGradient>
<linearGradient id="paint5_linear_60_108" x1="13.6391" y1="38.9062" x2="13.6391" y2="41.25" gradientUnits="userSpaceOnUse">
<stop stop-color="#990A92"/>
<stop offset="1" stop-color="#1E1A43"/>
</linearGradient>
<linearGradient id="paint6_linear_60_108" x1="6.60785" y1="38.9062" x2="6.60785" y2="41.25" gradientUnits="userSpaceOnUse">
<stop stop-color="#990A92"/>
<stop offset="1" stop-color="#1E1A43"/>
</linearGradient>
<linearGradient id="paint7_linear_60_108" x1="45.5141" y1="38.9062" x2="45.5141" y2="41.25" gradientUnits="userSpaceOnUse">
<stop stop-color="#990A92"/>
<stop offset="1" stop-color="#1E1A43"/>
</linearGradient>
<linearGradient id="paint8_linear_60_108" x1="50.2016" y1="38.9062" x2="50.2016" y2="41.25" gradientUnits="userSpaceOnUse">
<stop stop-color="#990A92"/>
<stop offset="1" stop-color="#1E1A43"/>
</linearGradient>
<linearGradient id="paint9_linear_60_108" x1="54.8891" y1="38.9062" x2="54.8891" y2="41.25" gradientUnits="userSpaceOnUse">
<stop stop-color="#990A92"/>
<stop offset="1" stop-color="#1E1A43"/>
</linearGradient>
<linearGradient id="paint10_linear_60_108" x1="50.2016" y1="43.5938" x2="50.2016" y2="45.9375" gradientUnits="userSpaceOnUse">
<stop stop-color="#990A92"/>
<stop offset="1" stop-color="#1E1A43"/>
</linearGradient>
<linearGradient id="paint11_linear_60_108" x1="54.8891" y1="43.5938" x2="54.8891" y2="45.9375" gradientUnits="userSpaceOnUse">
<stop stop-color="#990A92"/>
<stop offset="1" stop-color="#1E1A43"/>
</linearGradient>
<linearGradient id="paint12_linear_60_108" x1="45.5141" y1="43.5938" x2="45.5141" y2="45.9375" gradientUnits="userSpaceOnUse">
<stop stop-color="#990A92"/>
<stop offset="1" stop-color="#1E1A43"/>
</linearGradient>
<linearGradient id="paint13_linear_60_108" x1="54.8891" y1="48.2812" x2="54.8891" y2="50.625" gradientUnits="userSpaceOnUse">
<stop stop-color="#990A92"/>
<stop offset="1" stop-color="#1E1A43"/>
</linearGradient>
<linearGradient id="paint14_linear_60_108" x1="45.5141" y1="48.2812" x2="45.5141" y2="50.625" gradientUnits="userSpaceOnUse">
<stop stop-color="#990A92"/>
<stop offset="1" stop-color="#1E1A43"/>
</linearGradient>
<linearGradient id="paint15_linear_60_108" x1="50.2016" y1="48.2812" x2="50.2016" y2="50.625" gradientUnits="userSpaceOnUse">
<stop stop-color="#990A92"/>
<stop offset="1" stop-color="#1E1A43"/>
</linearGradient>
<linearGradient id="paint16_linear_60_108" x1="25.475" y1="38.9062" x2="25.475" y2="50.625" gradientUnits="userSpaceOnUse">
<stop stop-color="#990A92"/>
<stop offset="1" stop-color="#1E1A43"/>
</linearGradient>
<linearGradient id="paint17_linear_60_108" x1="36.0219" y1="38.9062" x2="36.0219" y2="50.625" gradientUnits="userSpaceOnUse">
<stop stop-color="#990A92"/>
<stop offset="1" stop-color="#1E1A43"/>
</linearGradient>
<linearGradient id="paint18_linear_60_108" x1="30.7485" y1="4.6875" x2="30.7485" y2="32.8125" gradientUnits="userSpaceOnUse">
<stop stop-color="#990A92"/>
<stop offset="1" stop-color="#1E1A43"/>
</linearGradient>
<linearGradient id="paint19_linear_60_108" x1="30.7485" y1="9.37494" x2="30.7485" y2="28.1251" gradientUnits="userSpaceOnUse">
<stop stop-color="#990A92"/>
<stop offset="1" stop-color="#1E1A43"/>
</linearGradient>
<clipPath id="clip0_60_108">
<rect width="60" height="60" fill="white" transform="translate(0.748474)"/>
</clipPath>
</defs>
</svg>
