<svg width="50" height="50" viewBox="0 0 50 50" fill="none" xmlns="http://www.w3.org/2000/svg">
<g clip-path="url(#clip0_90_17)">
<path d="M1.04675 21.0479C3.70235 11.5507 10.2536 4.65649 16.6216 4.65649C17.1331 4.65649 17.6441 4.70102 18.1419 4.78905C18.4242 4.83863 18.6711 5.00457 18.8239 5.24539C18.9762 5.48773 19.0192 5.78218 18.9418 6.0574L17.631 10.7463C17.5045 11.1991 17.0679 11.5052 16.614 11.4844L16.5098 11.4824C14.1482 11.4824 9.83213 15.0219 7.63186 22.8885C7.54484 23.2006 7.46238 23.5199 7.38295 23.8528C9.85287 22.6305 12.7994 22.3477 15.4676 23.0909C21.4871 24.7751 25.0134 31.0415 23.3307 37.0599C21.9667 41.9365 17.4807 45.3434 12.4214 45.3434C11.3909 45.3434 10.3618 45.2013 9.36263 44.9215C5.39315 43.812 2.4087 40.5164 0.958721 35.6439C-0.350105 31.2479 -0.317221 25.9281 1.04675 21.0479Z" fill="black" fill-opacity="0.1"/>
<path d="M42.5485 4.65723C43.059 4.65723 43.5705 4.70074 44.0678 4.78877C44.3496 4.83734 44.597 5.00429 44.7493 5.24511C44.9016 5.48745 44.9446 5.7819 44.8677 6.05712L43.5563 10.746C43.4298 11.1988 43.0013 11.5049 42.5394 11.4842L42.4362 11.4821C40.0746 11.4821 35.758 15.0216 33.5577 22.8882C33.4702 23.2024 33.3878 23.5216 33.3088 23.8525C35.7798 22.6302 38.7253 22.3474 41.3935 23.0906C47.412 24.7748 50.9393 31.0412 49.2556 37.0597C47.8916 41.9363 43.4056 45.3432 38.3463 45.3432C37.3158 45.3432 36.2867 45.201 35.287 44.9212C31.318 43.8117 28.3336 40.5161 26.8831 35.6436C25.5748 31.2476 25.6071 25.9273 26.9716 21.0466C29.6287 11.5504 36.1789 4.65723 42.5485 4.65723Z" fill="black" fill-opacity="0.1"/>
</g>
<defs>
<clipPath id="clip0_90_17">
<rect width="50" height="50" fill="white" transform="matrix(-1 0 0 1 50 0)"/>
</clipPath>
</defs>
</svg>
