<svg width="61" height="60" viewBox="0 0 61 60" fill="none" xmlns="http://www.w3.org/2000/svg">
<g clip-path="url(#clip0_60_58)">
<path d="M54.1079 48.0823H50.0131L45.1696 11.2713V0.411194H43.1833V11.3358L48.01 48.0823H44.1764V50.0686H48.149V54.0411C48.149 57.3322 50.8168 60 54.1079 60C57.3989 60 60.0668 57.3322 60.0668 54.0411C60.0668 50.7501 57.3989 48.0823 54.1079 48.0823ZM54.1079 58.0137C51.9139 58.0137 50.1353 56.2351 50.1353 54.0411C50.1353 51.8472 51.9139 50.0686 54.1079 50.0686C56.3019 50.0686 58.0805 51.8472 58.0805 54.0411C58.0805 56.2351 56.3019 58.0137 54.1079 58.0137Z" fill="url(#paint0_linear_60_58)"/>
<path d="M43.1832 0.411194H41.1969V11.2713L36.3534 48.0823H32.2586C28.9676 48.0823 26.2997 50.7501 26.2997 54.0411C26.2997 57.3322 28.9676 60 32.2586 60C35.5497 60 38.2175 57.3322 38.2175 54.0411V50.0686H42.1901V48.0823H38.3565L43.1743 11.4659L43.1832 0.411194ZM32.2586 58.0137C30.0646 58.0137 28.286 56.2351 28.286 54.0411C28.286 51.8472 30.0646 50.0686 32.2586 50.0686C34.4526 50.0686 36.2312 51.8472 36.2312 54.0411C36.2312 56.2351 34.4526 58.0137 32.2586 58.0137Z" fill="url(#paint1_linear_60_58)"/>
<path d="M22.3272 22.2604V0L20.6319 1.6953C17.893 4.41913 16.3577 8.12556 16.3683 11.9883V18.2878H20.3409V22.2604H18.3546V60H24.3135V22.2604H22.3272ZM18.3546 16.3015V11.9883C18.3482 9.58077 19.0381 7.22266 20.3409 5.19813V16.3015H18.3546ZM22.3272 58.0137H20.3409V24.2467H22.3272V58.0137Z" fill="url(#paint2_linear_60_58)"/>
<path d="M34.8408 12.9755C34.4447 11.7841 34.2434 10.5366 34.2449 9.28099V0.411194L28.286 4.88036V9.27901C28.2875 10.5346 28.0863 11.7821 27.6902 12.9735C26.7622 15.7789 26.7622 18.8085 27.6902 21.6139C28.0865 22.8059 28.2877 24.0542 28.286 25.3104V46.096H34.2449V25.3104C34.2434 24.0548 34.4447 22.8073 34.8408 21.6159C35.7688 18.8105 35.7688 15.7809 34.8408 12.9755ZM32.9598 20.9892C32.4951 22.3825 32.2584 23.8416 32.2586 25.3104V44.1097H30.2723V25.3104C30.2728 23.841 30.0361 22.3811 29.5712 20.9872C28.7774 18.5891 28.7774 15.9993 29.5712 13.6012C30.036 12.2075 30.2727 10.7481 30.2723 9.27901V5.8735L32.2586 4.38378V9.27901C32.2581 10.7484 32.4949 12.2083 32.9598 13.6022C33.7537 16.0005 33.7537 18.5909 32.9598 20.9892Z" fill="url(#paint3_linear_60_58)"/>
<path d="M52.5427 0.923645L47.8947 4.02226L52.1216 13.5326V46.096H58.0805V13.1066L52.5427 0.923645ZM56.0942 44.1097H54.1079V38.1508H56.0942V44.1097ZM56.0942 36.1645H54.1079V34.1782H56.0942V36.1645ZM56.0942 32.1919H54.1079V30.2056H56.0942V32.1919ZM56.0942 28.2193H54.1079V13.1115L50.3895 4.74528L51.7005 3.87131L56.0942 13.5376V28.2193Z" fill="url(#paint4_linear_60_58)"/>
<path d="M32.2586 14.3152H30.2723V16.3015H32.2586V14.3152Z" fill="url(#paint5_linear_60_58)"/>
<path d="M32.2586 18.2878H30.2723V20.2741H32.2586V18.2878Z" fill="url(#paint6_linear_60_58)"/>
<path d="M9.41626 0.411194H7.42996V18.2878H9.41626V0.411194Z" fill="url(#paint7_linear_60_58)"/>
<path d="M3.45735 38.1508H13.3888C15.0343 38.1508 16.3683 36.8168 16.3683 35.1713C16.3683 33.5258 15.0343 32.1919 13.3888 32.1919H3.45735C2.90888 32.1919 2.4642 31.7472 2.4642 31.1987C2.4642 30.6503 2.90888 30.2056 3.45735 30.2056H13.3888C15.0343 30.2056 16.3683 28.8717 16.3683 27.2261C16.3683 25.5806 15.0343 24.2467 13.3888 24.2467H10.4094C9.86091 24.2467 9.41623 23.802 9.41623 23.2536V20.2741H7.42994V23.2536C7.42994 24.8991 8.76386 26.233 10.4094 26.233H13.3888C13.9373 26.233 14.382 26.6777 14.382 27.2261C14.382 27.7746 13.9373 28.2193 13.3888 28.2193H3.45735C1.81183 28.2193 0.477905 29.5532 0.477905 31.1987C0.477905 32.8442 1.81183 34.1782 3.45735 34.1782H13.3888C13.9373 34.1782 14.382 34.6229 14.382 35.1713C14.382 35.7198 13.9373 36.1645 13.3888 36.1645H3.45735C1.81183 36.1645 0.477905 37.4984 0.477905 39.1439C0.477905 40.7894 1.81183 42.1234 3.45735 42.1234H13.3888C13.9373 42.1234 14.382 42.568 14.382 43.1165C14.382 43.665 13.9373 44.1096 13.3888 44.1096H3.45735C1.81183 44.1096 0.477905 45.4436 0.477905 47.0891C0.477905 48.7346 1.81183 50.0685 3.45735 50.0685H13.3888C13.9373 50.0685 14.382 50.5132 14.382 51.0617C14.382 51.6101 13.9373 52.0548 13.3888 52.0548H3.45735C1.81183 52.0548 0.477905 53.3887 0.477905 55.0343C0.477905 56.6798 1.81183 58.0137 3.45735 58.0137H13.3888C13.9373 58.0137 14.382 58.4584 14.382 59.0069V60H16.3683V59.0069C16.3683 57.3613 15.0343 56.0274 13.3888 56.0274H3.45735C2.90888 56.0274 2.4642 55.5827 2.4642 55.0343C2.4642 54.4858 2.90888 54.0411 3.45735 54.0411H13.3888C15.0343 54.0411 16.3683 52.7072 16.3683 51.0617C16.3683 49.4162 15.0343 48.0822 13.3888 48.0822H3.45735C2.90888 48.0822 2.4642 47.6376 2.4642 47.0891C2.4642 46.5406 2.90888 46.0959 3.45735 46.0959H13.3888C15.0343 46.0959 16.3683 44.762 16.3683 43.1165C16.3683 41.471 15.0343 40.1371 13.3888 40.1371H3.45735C2.90888 40.1371 2.4642 39.6924 2.4642 39.1439C2.4642 38.5954 2.90888 38.1508 3.45735 38.1508Z" fill="url(#paint8_linear_60_58)"/>
</g>
<defs>
<linearGradient id="paint0_linear_60_58" x1="51.625" y1="0.411194" x2="51.625" y2="60" gradientUnits="userSpaceOnUse">
<stop stop-color="#990A92"/>
<stop offset="1" stop-color="#1E1A43"/>
</linearGradient>
<linearGradient id="paint1_linear_60_58" x1="34.7415" y1="0.411194" x2="34.7415" y2="60" gradientUnits="userSpaceOnUse">
<stop stop-color="#990A92"/>
<stop offset="1" stop-color="#1E1A43"/>
</linearGradient>
<linearGradient id="paint2_linear_60_58" x1="20.3408" y1="0" x2="20.3408" y2="60" gradientUnits="userSpaceOnUse">
<stop stop-color="#990A92"/>
<stop offset="1" stop-color="#1E1A43"/>
</linearGradient>
<linearGradient id="paint3_linear_60_58" x1="31.2655" y1="0.411194" x2="31.2655" y2="46.096" gradientUnits="userSpaceOnUse">
<stop stop-color="#990A92"/>
<stop offset="1" stop-color="#1E1A43"/>
</linearGradient>
<linearGradient id="paint4_linear_60_58" x1="52.9876" y1="0.923645" x2="52.9876" y2="46.096" gradientUnits="userSpaceOnUse">
<stop stop-color="#990A92"/>
<stop offset="1" stop-color="#1E1A43"/>
</linearGradient>
<linearGradient id="paint5_linear_60_58" x1="31.2655" y1="14.3152" x2="31.2655" y2="16.3015" gradientUnits="userSpaceOnUse">
<stop stop-color="#990A92"/>
<stop offset="1" stop-color="#1E1A43"/>
</linearGradient>
<linearGradient id="paint6_linear_60_58" x1="31.2655" y1="18.2878" x2="31.2655" y2="20.2741" gradientUnits="userSpaceOnUse">
<stop stop-color="#990A92"/>
<stop offset="1" stop-color="#1E1A43"/>
</linearGradient>
<linearGradient id="paint7_linear_60_58" x1="8.42311" y1="0.411194" x2="8.42311" y2="18.2878" gradientUnits="userSpaceOnUse">
<stop stop-color="#990A92"/>
<stop offset="1" stop-color="#1E1A43"/>
</linearGradient>
<linearGradient id="paint8_linear_60_58" x1="8.42308" y1="20.2741" x2="8.42308" y2="60" gradientUnits="userSpaceOnUse">
<stop stop-color="#990A92"/>
<stop offset="1" stop-color="#1E1A43"/>
</linearGradient>
<clipPath id="clip0_60_58">
<rect width="60" height="60" fill="white" transform="translate(0.272339)"/>
</clipPath>
</defs>
</svg>
